<?xml version="1.0" encoding="utf-8"?>
<!-- Uploaded to: SVG Repo, www.svgrepo.com, Generator: SVG Repo Mixer Tools -->
<svg width="800px" height="800px" viewBox="0 0 1024 1024" class="icon"  version="1.1" xmlns="http://www.w3.org/2000/svg"><path d="M 794.965 466.603 c 0 -87.3813 -70.8835 -158.265 -158.265 -158.265 c -48.2418 0 -91.4773 21.6178 -120.491 55.7511 c -29.0133 -34.1333 -72.2489 -55.7511 -120.491 -55.7511 c -87.3813 0 -158.265 70.8835 -158.265 158.265 c 0 45.8525 21.0489 84.3093 50.7449 116.167 l 228.807 219.819 L 741.831 585.159 c 28.2169 -29.696 53.1342 -71.3387 53.1342 -118.557 Z" fill="#ffa9b1" /><path d="M 457.387 709.632 c -3.18578 -55.7511 -18.2045 -106.041 -18.7733 -108.089 l -13.6533 4.096 c 0.113778 0.341333 2.048 7.05422 4.66489 17.8631 L 361.813 588.117 c 5.12 -5.46133 8.192 -8.64711 8.41955 -8.76089 l -5.00622 -5.12 l -5.00622 -5.12 c -2.95822 2.84445 -72.5902 71.1111 -91.8187 151.211 c -19.3422 80.896 4.66489 123.904 5.68889 125.725 l 12.4018 -7.05422 c -0.113778 -0.113778 -3.75467 -6.71289 -6.82667 -19.456 l 142.905 -3.86845 c -7.28178 9.78489 -16.7253 17.408 -28.7858 22.1867 l 5.12 13.312 c 24.1209 -9.32978 41.0738 -28.7858 50.5173 -57.7991 c 7.168 -22.4142 9.89867 -50.6311 7.96445 -83.7405 Z" fill="#9fc8fe" /><path d="M 402.773 553.074 m -88.9742 0 a 88.9742 88.9742 0 1 0 177.949 0 a 88.9742 88.9742 0 1 0 -177.949 0 Z" fill="#81b6fe" /><path d="M 566.613 709.632 c 3.18578 -55.7511 18.2045 -106.041 18.7733 -108.089 l 13.6533 4.096 c -0.113778 0.341333 -2.048 7.05422 -4.66489 17.8631 l 67.8115 -35.3849 c -5.12 -5.46133 -8.192 -8.64711 -8.41955 -8.76089 l 5.00622 -5.12 l 5.00622 -5.12 c 2.95822 2.84445 72.5902 71.1111 91.8187 151.211 c 19.3422 80.896 -4.66489 123.904 -5.68889 125.725 l -12.4018 -7.05422 c 0.113778 -0.113778 3.75467 -6.71289 6.82667 -19.456 l -142.905 -3.86845 c 7.28178 9.78489 16.7253 17.408 28.7858 22.1867 l -5.12 13.312 c -24.1209 -9.32978 -41.0738 -28.7858 -50.5173 -57.7991 c -7.168 -22.4142 -9.89867 -50.6311 -7.96445 -83.7405 Z" fill="#ff8882" /><path d="M 621.227 553.074 m -88.9742 0 a 88.9742 88.9742 0 1 0 177.949 0 a 88.9742 88.9742 0 1 0 -177.949 0 Z" fill="#ff6b6a" /><path d="M 9.78503 148.48 v 798.72 h 1012.62 v -798.72 h -1012.62 Z m 943.559 654.677 h -873.813 v -582.542 h 873.813 v 582.542 Z" fill="#e5f1ff" /></svg>